<svg width="71" height="76" viewBox="0 0 71 76" fill="none" xmlns="http://www.w3.org/2000/svg">
<rect y="17.9634" width="51" height="57" rx="8.15071" fill="#86E8D1"/>
<path d="M48.9463 8.85449H19.5099C14.5272 8.85449 10.488 12.8937 10.488 17.8764V56.5576C10.488 61.5403 14.5272 65.5795 19.5099 65.5795H48.9463C53.9289 65.5795 57.9682 61.5403 57.9682 56.5576V17.8764C57.9682 12.8937 53.9289 8.85449 48.9463 8.85449Z" fill="white" stroke="#0E101A" stroke-linecap="round" stroke-linejoin="round"/>
<path d="M50.5292 32.9845H18.3208C16.8104 32.9845 15.586 34.2089 15.586 35.7193C15.586 37.2297 16.8104 38.4541 18.3208 38.4541H50.5292C52.0396 38.4541 53.264 37.2297 53.264 35.7193C53.264 34.2089 52.0396 32.9845 50.5292 32.9845Z" fill="#AFEEE0"/>
<path d="M28.2939 41.3971H18.5363C17.0259 41.3971 15.8015 42.6215 15.8015 44.1319C15.8015 45.6423 17.0259 46.8667 18.5363 46.8667H28.2939C29.8043 46.8667 31.0287 45.6423 31.0287 44.1319C31.0287 42.6215 29.8043 41.3971 28.2939 41.3971Z" fill="#AFEEE0"/>
<path d="M17.5182 43.9388H50.7893" stroke="#0E101A" stroke-linecap="round" stroke-linejoin="round"/>
<path d="M17.5182 35.2585H50.7893" stroke="#0E101A" stroke-linecap="round" stroke-linejoin="round"/>
<path d="M17.5182 26.5862H50.7893" stroke="#0E101A" stroke-linecap="round" stroke-linejoin="round"/>
<path d="M17.5182 17.9058H50.7893" stroke="#0E101A" stroke-linecap="round" stroke-linejoin="round"/>
<path d="M16.8643 52.6185H27.3502" stroke="#0E101A" stroke-linecap="round" stroke-linejoin="round"/>
<path d="M55.7164 27.0467L50.0982 32.6501V26.8163C48.1272 26.8163 46.237 26.0334 44.8433 24.6397C43.4496 23.246 42.6666 21.3557 42.6666 19.3848V13.3949C42.6666 11.424 43.4496 9.53372 44.8433 8.14003C46.237 6.74634 48.1272 5.96338 50.0982 5.96338H61.4387C63.4097 5.96338 65.2999 6.74634 66.6936 8.14003C68.0873 9.53372 68.8703 11.424 68.8703 13.3949V19.3773C68.8703 21.3483 68.0873 23.2385 66.6936 24.6322C65.2999 26.0259 63.4097 26.8089 61.4387 26.8089L55.7164 27.0467Z" fill="#86E8D1" stroke="#0E101A" stroke-linecap="round" stroke-linejoin="round"/>
</svg>
