<svg width="75" height="76" viewBox="0 0 75 76" fill="none" xmlns="http://www.w3.org/2000/svg">
<g clip-path="url(#clip0_67_2077)">
<path d="M6.85483 18.9634H43.1451C46.9758 18.9634 50 22.0634 50 25.7634V69.1634C50 72.9634 46.875 75.9634 43.1451 75.9634H6.85483C3.02418 75.9634 0 72.8634 0 69.1634V25.7634C0 22.0634 3.02418 18.9634 6.85483 18.9634Z" fill="#86E8D1"/>
<path d="M18.4436 8.96338H52.5565C56.1573 8.96338 59 12.0634 59 15.7634V59.1634C59 62.9634 56.0625 65.9634 52.5565 65.9634H18.4436C14.8428 65.9634 12 62.8634 12 59.1634V15.7634C12 12.0634 14.8428 8.96338 18.4436 8.96338Z" fill="white" stroke="#0E101A" stroke-miterlimit="10" stroke-linecap="round" stroke-linejoin="round"/>
<path d="M19.0005 37.7964H42.9897" stroke="#0E101A" stroke-miterlimit="10" stroke-linecap="round" stroke-linejoin="round"/>
<path d="M19.0005 45.7842H33.6026" stroke="#0E101A" stroke-miterlimit="10" stroke-linecap="round" stroke-linejoin="round"/>
<path d="M19.0005 29.8086H42.9897" stroke="#0E101A" stroke-miterlimit="10" stroke-linecap="round" stroke-linejoin="round"/>
<circle cx="58.5" cy="15.4634" r="14" fill="#86E8D1" stroke="#0E101A"/>
<path d="M59.3374 16.8462L59.4111 16.9006L59.4718 16.832C59.5296 16.7666 59.5858 16.7013 59.6415 16.6366C59.7648 16.4933 59.8857 16.3528 60.0173 16.2193L59.946 16.1492L60.0173 16.2193C60.7212 15.5049 61.4298 14.7942 62.143 14.0872L62.1432 14.0871C62.3216 13.9093 62.5056 13.8216 62.673 13.8094C62.8382 13.7974 62.9997 13.8577 63.1403 14.0008C63.2816 14.1447 63.3384 14.3025 63.3259 14.4614C63.3132 14.6228 63.2277 14.7992 63.0576 14.9734C61.7297 16.3186 60.3989 17.6619 59.0654 19.0034C58.883 19.1864 58.7069 19.2676 58.5412 19.2682C58.3757 19.2688 58.1985 19.189 58.0135 19.0033L58.0132 19.003C56.6731 17.669 55.3363 16.3317 54.0027 14.9911L54.0027 14.9911C53.8411 14.8288 53.7627 14.6474 53.7558 14.4781C53.7489 14.3097 53.8124 14.1454 53.9496 14.0124C54.0873 13.879 54.2463 13.8239 54.4069 13.8358C54.5691 13.8479 54.7425 13.9293 54.9023 14.0872C55.7117 14.8922 56.5179 15.701 57.3207 16.5134C57.413 16.625 57.4955 16.7442 57.5673 16.87L57.6179 16.9588L57.7056 16.9062L57.8457 16.8221L57.8942 16.793V16.7363V16.3369V16.3221V16.3073V16.2924V16.2776V16.2627V16.2479V16.233V16.2182V16.2033V16.1885V16.1736V16.1588V16.1439V16.1291V16.1143V16.0994V16.0846V16.0697V16.0549V16.04V16.0252V16.0103V15.9955V15.9806V15.9658V15.9509V15.9361V15.9213V15.9064V15.8916V15.8767V15.8619V15.847V15.8322V15.8173V15.8025V15.7876V15.7728V15.7579V15.7431V15.7283V15.7134V15.6986V15.6837V15.6689V15.654V15.6392V15.6243V15.6095V15.5946V15.5798V15.5649V15.5501V15.5353V15.5204V15.5056V15.4907V15.4759V15.461V15.4462V15.4313V15.4165V15.4016V15.3868V15.3719V15.3571V15.3423V15.3274V15.3126V15.2977V15.2829V15.268V15.2532V15.2383V15.2235V15.2086V15.1938V15.1789V15.1641V15.1493V15.1344V15.1196V15.1047V15.0899V15.075V15.0602V15.0453V15.0305V15.0156V15.0008V14.9859V14.9711V14.9563V14.9414V14.9266V14.9117V14.8969V14.882V14.8672V14.8523V14.8375V14.8226V14.8078V14.793V14.7781V14.7633V14.7484V14.7336V14.7187V14.7039V14.689V14.6742V14.6593V14.6445V14.6296V14.6148V14.6V14.5851V14.5703V14.5554V14.5406V14.5257V14.5109V14.496V14.4812V14.4663V14.4515V14.4366V14.4218V14.407V14.3921V14.3773V14.3624V14.3476V14.3327V14.3179V14.303V14.2882V14.2733V14.2585V14.2436V14.2288V14.214V14.1991V14.1843V14.1694V14.1546V14.1397V14.1249V14.11V14.0952V14.0803V14.0655V14.0506V14.0358V14.021V14.0061V13.9913V13.9764V13.9616V13.9467V13.9319V13.917V13.9022V13.8873V13.8725V13.8576V13.8428V13.828V13.8131V13.7983V13.7834V13.7686V13.7537V13.7389V13.724V13.7092V13.6943V13.6795V13.6646V13.6498V13.635V13.6201V13.6053V13.5904V13.5756V13.5607V13.5459V13.531V13.5162V13.5013V13.4865V13.4716V13.4568V13.442V13.4271V13.4123V13.3974V13.3826V13.3677V13.3529V13.338V13.3232V13.3083V13.2935V13.2786V13.2638V13.249V13.2341V13.2193V13.2044V13.1896V13.1747V13.1599V13.145V13.1302V13.1153V13.1005V13.0856V13.0708V13.056V13.0411V13.0263V13.0114V12.9966V12.9817V12.9669V12.952V12.9372V12.9223V12.9075V12.8926V12.8778V12.863V12.8481V12.8333V12.8184V12.8036V12.7887V12.7739V12.759V12.7442V12.7293V12.7145V12.6996V12.6848V12.67V12.6551V12.6403V12.6254V12.6106V12.5957V12.5809V12.566V12.5512V12.5363V12.5215V12.5066V12.4918V12.477V12.4621V12.4473V12.4324V12.4176V12.4027V12.3879V12.373V12.3582V12.3433V12.3285V12.3136V12.2988V12.284V12.2691V12.2543V12.2394V12.2246V12.2097V12.1949V12.18V12.1652V12.1503V12.1355V12.1206V12.1058V12.091V12.0761V12.0613V12.0464V12.0316V12.0167V12.0019V11.987V11.9722V11.9573V11.9425V11.9276V11.9128V11.898V11.8831V11.8683V11.8534V11.8386V11.8237V11.8089V11.794V11.7792V11.7643V11.7495V11.7346V11.7198V11.705V11.6901V11.6753V11.6604V11.6456V11.6307V11.6159V11.601V11.5862V11.5713V11.5565V11.5416V11.5268V11.512V11.4971V11.4823V11.4674V11.4526V11.4377V11.4229V11.408V11.3932V11.3783V11.3635V11.3486V11.3338V11.319V11.3041V11.2893V11.2744V11.2596V11.2447V11.2299V11.215V11.2002V11.1853V11.1705V11.1556V11.1408V11.126V11.1111V11.0963V11.0814V11.0666V11.0517V11.0369V11.022V11.0072V10.9923V10.9775V10.9626V10.9478V10.933V10.9181V10.9033V10.8884V10.8736V10.8587V10.8439V10.829V10.8142V10.7993V10.7845V10.7696V10.7548V10.74V10.7251V10.7103V10.6954V10.6806V10.6657V10.6509V10.636V10.6212V10.6063V10.5915V10.5767V10.5618V10.547V10.5321V10.5173V10.5024V10.4876V10.4727V10.4579V10.443V10.4282V10.4133V10.3985V10.3837V10.3688V10.354V10.3391V10.3243V10.3094V10.2946V10.2797V10.2649V10.25V10.2352V10.2203V10.2055V10.1907V10.1758V10.161V10.1461V10.1313V10.1164V10.1016V10.0867V10.0719V10.057V10.0422V10.0273V10.0125V9.99765V9.98281V9.96796V9.95311V9.93827V9.92342V9.90857V9.89373V9.87888V9.86404V9.84919V9.83434V9.8195V9.80465V9.78981V9.77496V9.76011V9.74527V9.73042V9.71557V9.70073V9.68588V9.67104V9.65619V9.64134V9.6265V9.61165V9.59681V9.58196V9.56711V9.55227V9.53742V9.52258V9.50773V9.49288V9.47804V9.46319V9.44834V9.4335V9.41865V9.40381V9.38896V9.37411V9.35927V9.34442V9.32958V9.31473V9.29988V9.28504V9.27019V9.25534V9.2405V9.22565V9.21081V9.19596V9.18111V9.16627V9.15142V9.13658V9.12173V9.10688V9.09204V9.07719V9.06235V9.0475V9.03265V9.01781V9.00296V8.98811V8.97327V8.95842V8.94358V8.92873V8.91388V8.89904V8.88419V8.86935V8.8545V8.83965V8.82481V8.80996V8.79511V8.78027V8.76542V8.75058V8.73573H57.8943L57.8941 8.73145C57.8884 8.59809 57.8955 8.46449 57.9152 8.33247C57.9429 8.19383 58.0169 8.06872 58.1251 7.9776C58.2337 7.88602 58.3704 7.83427 58.5125 7.8309L58.5125 7.83093L58.5152 7.83079C58.6568 7.82347 58.7964 7.8659 58.91 7.95072C59.0231 8.03523 59.1033 8.15652 59.1368 8.29373C59.1655 8.43395 59.1779 8.57704 59.1736 8.72012L59.1736 8.72012V8.72312V8.73762V8.75212V8.76662V8.78112V8.79562V8.81013V8.82463V8.83913V8.85363V8.86813V8.88263V8.89713V8.91164V8.92614V8.94064V8.95514V8.96964V8.98414V8.99865V9.01315V9.02765V9.04215V9.05665V9.07115V9.08566V9.10016V9.11466V9.12916V9.14366V9.15817V9.17267V9.18717V9.20167V9.21617V9.23068V9.24518V9.25968V9.27418V9.28868V9.30319V9.31769V9.33219V9.34669V9.36119V9.3757V9.3902V9.4047V9.4192V9.43371V9.44821V9.46271V9.47721V9.49171V9.50622V9.52072V9.53522V9.54972V9.56423V9.57873V9.59323V9.60773V9.62224V9.63674V9.65124V9.66574V9.68025V9.69475V9.70925V9.72376V9.73826V9.75276V9.76726V9.78177V9.79627V9.81077V9.82527V9.83978V9.85428V9.86878V9.88329V9.89779V9.91229V9.9268V9.9413V9.9558V9.9703V9.98481V9.99931V10.0138V10.0283V10.0428V10.0573V10.0718V10.0863V10.1008V10.1153V10.1298V10.1443V10.1588V10.1734V10.1879V10.2024V10.2169V10.2314V10.2459V10.2604V10.2749V10.2894V10.3039V10.3184V10.3329V10.3474V10.3619V10.3764V10.3909V10.4054V10.4199V10.4344V10.4489V10.4634V10.4779V10.4924V10.5069V10.5214V10.5359V10.5504V10.5649V10.5795V10.594V10.6085V10.623V10.6375V10.652V10.6665V10.681V10.6955V10.71V10.7245V10.739V10.7535V10.768V10.7825V10.797V10.8115V10.826V10.8405V10.855V10.8695V10.884V10.8985V10.9131V10.9276V10.9421V10.9566V10.9711V10.9856V11.0001V11.0146V11.0291V11.0436V11.0581V11.0726V11.0871V11.1016V11.1161V11.1306V11.1451V11.1596V11.1741V11.1886V11.2031V11.2176V11.2322V11.2467V11.2612V11.2757V11.2902V11.3047V11.3192V11.3337V11.3482V11.3627V11.3772V11.3917V11.4062V11.4207V11.4352V11.4497V11.4642V11.4787V11.4932V11.5078V11.5223V11.5368V11.5513V11.5658V11.5803V11.5948V11.6093V11.6238V11.6383V11.6528V11.6673V11.6818V11.6963V11.7108V11.7253V11.7398V11.7543V11.7689V11.7834V11.7979V11.8124V11.8269V11.8414V11.8559V11.8704V11.8849V11.8994V11.9139V11.9284V11.9429V11.9574V11.9719V11.9864V12.0009V12.0155V12.03V12.0445V12.059V12.0735V12.088V12.1025V12.117V12.1315V12.146V12.1605V12.175V12.1895V12.204V12.2185V12.233V12.2476V12.2621V12.2766V12.2911V12.3056V12.3201V12.3346V12.3491V12.3636V12.3781V12.3926V12.4071V12.4216V12.4361V12.4506V12.4652V12.4797V12.4942V12.5087V12.5232V12.5377V12.5522V12.5667V12.5812V12.5957V12.6102V12.6247V12.6392V12.6537V12.6682V12.6828V12.6973V12.7118V12.7263V12.7408V12.7553V12.7698V12.7843V12.7988V12.8133V12.8278V12.8423V12.8568V12.8713V12.8859V12.9004V12.9149V12.9294V12.9439V12.9584V12.9729V12.9874V13.0019V13.0164V13.0309V13.0454V13.0599V13.0745V13.089V13.1035V13.118V13.1325V13.147V13.1615V13.176V13.1905V13.205V13.2195V13.234V13.2485V13.2631V13.2776V13.2921V13.3066V13.3211V13.3356V13.3501V13.3646V13.3791V13.3936V13.4081V13.4226V13.4372V13.4517V13.4662V13.4807V13.4952V13.5097V13.5242V13.5387V13.5532V13.5677V13.5822V13.5967V13.6113V13.6258V13.6403V13.6548V13.6693V13.6838V13.6983V13.7128V13.7273V13.7418V13.7563V13.7708V13.7854V13.7999V13.8144V13.8289V13.8434V13.8579V13.8724V13.8869V13.9014V13.9159V13.9304V13.945V13.9595V13.974V13.9885V14.003V14.0175V14.032V14.0465V14.061V14.0755V14.09V14.1046V14.1191V14.1336V14.1481V14.1626V14.1771V14.1916V14.2061V14.2206V14.2351V14.2496V14.2642V14.2787V14.2932V14.3077V14.3222V14.3367V14.3512V14.3657V14.3802V14.3947V14.4093V14.4238V14.4383V14.4528V14.4673V14.4818V14.4963V14.5108V14.5253V14.5398V14.5543V14.5689V14.5834V14.5979V14.6124V14.6269V14.6414V14.6559V14.6704V14.6849V14.6994V14.714V14.7285V14.743V14.7575V14.772V14.7865V14.801V14.8155V14.83V14.8445V14.8591V14.8736V14.8881V14.9026V14.9171V14.9316V14.9461V14.9606V14.9751V14.9897V15.0042V15.0187V15.0332V15.0477V15.0622V15.0767V15.0912V15.1057V15.1202V15.1348V15.1493V15.1638V15.1783V15.1928V15.2073V15.2218V15.2363V15.2508V15.2654V15.2799V15.2944V15.3089V15.3234V15.3379V15.3524V15.3669V15.3814V15.396V15.4105V15.425V15.4395V15.454V15.4685V15.483V15.4975V15.512V15.5266V15.5411V15.5556V15.5701V15.5846V15.5991V15.6136V15.6281V15.6426V15.6572V15.6717V15.6862V15.7007V15.7152V15.7297V15.7442V15.7587V15.7733V15.7878V15.8023V15.8168V15.8313V15.8458V15.8603V15.8748V15.8893V15.9039V15.9184V15.9329V15.9474V15.9619V15.9764V15.9909V16.0054V16.02V16.0345V16.049V16.0635V16.078V16.0925V16.107V16.1215V16.136V16.1506V16.6747V16.7251L59.2142 16.7551L59.3374 16.8462Z" fill="#0E101A" stroke="#86E8D1" stroke-width="0.2"/>
<path d="M62.9243 20.4998L62.8246 20.5001L60.352 20.5085L60.3516 20.5085C59.7054 20.5085 59.0594 20.5073 58.4134 20.506C57.1221 20.5035 55.8312 20.5011 54.54 20.5085C54.5399 20.5085 54.5398 20.5085 54.5398 20.5085L54.5392 20.4085C54.2436 20.4113 54.1469 20.3188 54.1693 20.0316L62.9243 20.4998ZM62.9243 20.4998V20.4001V20.3977V20.3952V20.3927V20.3903V20.3878V20.3854V20.3829V20.3804V20.378V20.3755V20.3731V20.3706V20.3682V20.3657V20.3633V20.3608V20.3584V20.3559V20.3535V20.3511V20.3486V20.3462V20.3437V20.3413V20.3388V20.3364V20.334V20.3315V20.3291V20.3267V20.3242V20.3218V20.3194V20.3169V20.3145V20.3121V20.3096V20.3072V20.3048V20.3024V20.2999V20.2975V20.2951V20.2927V20.2902V20.2878V20.2854V20.283V20.2806V20.2782V20.2757V20.2733V20.2709V20.2685V20.2661V20.2637V20.2613V20.2589V20.2565V20.254V20.2516V20.2492V20.2468V20.2444V20.242V20.2396V20.2372V20.2348V20.2324V20.23V20.2276V20.2252V20.2228V20.2204V20.218V20.2157V20.2133V20.2109V20.2085V20.2061V20.2037V20.2013V20.1989V20.1965V20.1942V20.1918V20.1894V20.187V20.1846V20.1822V20.1799V20.1775V20.1751V20.1727V20.1703V20.168V20.1656V20.1632V20.1608V20.1585V20.1561V20.1537V20.1514V20.149V20.1466V20.1443V20.1419V20.1395V20.1372V20.1348V20.1324V20.1301V20.1277V20.1253V20.123V20.1206V20.1183V20.1159V20.1135V20.1112V20.1088V20.1065V20.1041V20.1018V20.0994V20.0971V20.0947V20.0924V20.09V20.0877V20.0853V20.083V20.0806V20.0783V20.0759V20.0736V20.0712V20.0689V20.0666V20.0642V20.0619V20.0595V20.0572V20.0549V20.0525V20.0502V20.0478V20.0455V20.0432V20.0408V20.0385V20.0362V20.0338V20.0315V20.0292V20.0269V20.0245V20.0222V20.0199V20.0175V20.0152V20.0129V20.0106V20.0083V20.0059V20.0036V20.0013V19.999V19.9966V19.9943V19.992V19.9897V19.9874V19.9851V19.9827V19.9804V19.9781V19.9758V19.9735V19.9712V19.9689V19.9666V19.9642V19.9619V19.9596V19.9573V19.955V19.9527V19.9504V19.9481V19.9458V19.9435V19.9412V19.9389V19.9366V19.9343V19.932V19.9297V19.9274V19.9251V19.9228V19.9205V19.9182V19.9159V19.9136V19.9113V19.909V19.9067V19.9044V19.9021V19.8998V19.8975V19.8952V19.893V19.8907V19.8884V19.8861V19.8838V19.8815V19.8792V19.8769V19.8747V19.8724V19.8701V19.8678V19.8655V19.8632V19.861V19.8587V19.8564V19.8541V19.8519V19.8496V19.8473V19.845V19.8427V19.8405V19.8382V19.8359V19.8336V19.8314V19.8291V19.8268V19.8246V19.8223V19.82V19.8177V19.8155V19.8132V19.8109V19.8087V19.8064V19.8041V19.8019V19.7996V19.7973V19.7951V19.7928V19.7906V19.7883V19.786V19.7838V19.7815V19.7792V19.777V19.7747V19.7725V19.7702V19.768V19.7657V19.7634V19.7612V19.7589V19.7567V19.7544V19.7522V19.7499V19.7477V19.7454V19.7432V19.7409V19.7387V19.7364V19.7342V19.7319V19.7297V19.7274V19.7252V19.7229V19.7207V19.7184V19.7162V19.7139V19.7117V19.7094V19.7072V19.705V19.7027V19.7005V19.6982V19.696V19.6938V19.6915V19.6893V19.687V19.6848V19.6826V19.6803V19.6781V19.6758V19.6736V19.6714V19.6691V19.6669V19.6647V19.6624V19.6602V19.658V19.6557V19.6535V19.6513V19.649V19.6468V19.6446V19.6424V19.6401V19.6379V19.6357V19.6334V19.6312V19.629V19.6268V19.6245V19.6223V19.6201V19.6179V19.6156V19.6134V19.6112V19.609V19.6067V19.6045V19.6023V19.6001V19.5978V19.5956V19.5934V19.5912V19.589V19.5867V19.5845V19.5823V19.5801V19.5779V19.5757V19.5734V19.5712V19.569V19.5668V19.5646V19.5624V19.5601V19.5579V19.5557V19.5535V19.5513V19.5491V19.5469V19.5447V19.5424V19.5402V19.538V19.5358V19.5336V19.5314V19.5292V19.527V19.5248V19.5226V19.5203V19.5181V19.5159V19.5137V19.5115V19.5093V19.5071V19.5049V19.5027V19.5005V19.4983V19.4961V19.4939V19.4917V19.4895V19.4873V19.4851V19.4829V19.4807V19.4785V19.4763V19.4741V19.4719V19.4697V19.4675V19.4653V19.4631V19.4609V19.4587V19.4565V19.4543V19.4521V19.4499V19.4477V19.4455V19.4433V19.4411V19.4389V19.4367V19.4345V19.4323V19.4301V19.4279V19.4257V19.4235V19.4213V19.4191V19.4169V19.4148V19.4126V19.4104V19.4082V19.406V19.4038V19.4016V19.3994V19.3972V19.395V19.3928V19.3906V19.3885V19.3863V19.3841V19.3819V19.3797V19.3775V19.3753V19.3731V19.371V19.3688V19.3666V19.3644V19.3622V19.36V19.3578V19.3556V19.3535V19.3513V19.3491V19.3469V19.3447V19.3425V19.3403V19.3382V19.336V19.3338V19.3316V19.3294V19.3272V19.3251V19.3229V19.3207V19.3185V19.3163V19.3141V19.312V19.3098V19.3076V19.3054V19.3032V19.3011V19.2989V19.2967V19.2945V19.2923V19.2902V19.288V19.2858V19.2836V19.2814V19.2793V19.2771V19.2749V19.2727V19.2705V19.2684V19.2662V19.264V19.2618V19.2596V19.2575V19.2553V19.2531V19.2509V19.2488V19.2466V19.2444V19.2422V19.2401V19.2379V19.2357V19.2335V19.2322C62.9283 18.9972 62.9996 18.8143 63.1113 18.6922C63.2221 18.5712 63.3798 18.5022 63.5747 18.5059C63.7706 18.5096 63.9218 18.5818 64.0258 18.7014C64.1309 18.8223 64.1954 19.0005 64.1981 19.2277C64.1981 19.4306 64.1988 19.6332 64.1996 19.8356C64.2012 20.2401 64.2027 20.644 64.1981 21.0478V21.049C64.1981 21.3039 64.1323 21.4818 64.0192 21.5964C63.9062 21.7108 63.7305 21.7779 63.4769 21.7786C63.4769 21.7786 63.4769 21.7786 63.4769 21.7786L63.4577 21.7786H63.4383H63.4188H63.3994H63.38H63.3606H63.3412H63.3217H63.3023H63.2829H63.2635H63.2441H63.2246H63.2052H63.1858H63.1664H63.1469H63.1275H63.1081H63.0887H63.0693H63.0498H63.0304H63.011H62.9916H62.9721H62.9527H62.9333H62.9139H62.8945H62.875H62.8556H62.8362H62.8168H62.7973H62.7779H62.7585H62.7391H62.7197H62.7002H62.6808H62.6614H62.642H62.6225H62.6031H62.5837H62.5643H62.5449H62.5254H62.506H62.4866H62.4672H62.4477H62.4283H62.4089H62.3895H62.3701H62.3506H62.3312H62.3118H62.2924H62.2729H62.2535H62.2341H62.2147H62.1952H62.1758H62.1564H62.137H62.1176H62.0981H62.0787H62.0593H62.0399H62.0204H62.001H61.9816H61.9622H61.9427H61.9233H61.9039H61.8845H61.8651H61.8456H61.8262H61.8068H61.7874H61.7679H61.7485H61.7291H61.7097H61.6902H61.6708H61.6514H61.632H61.6126H61.5931H61.5737H61.5543H61.5349H61.5154H61.496H61.4766H61.4572H61.4377H61.4183H61.3989H61.3795H61.36H61.3406H61.3212H61.3018H61.2824H61.2629H61.2435H61.2241H61.2047H61.1852H61.1658H61.1464H61.127H61.1075H61.0881H61.0687H61.0493H61.0298H61.0104H60.991H60.9716H60.9521H60.9327H60.9133H60.8939H60.8744H60.855H60.8356H60.8162H60.7967H60.7773H60.7579H60.7385H60.719H60.6996H60.6802H60.6608H60.6414H60.6219H60.6025H60.5831H60.5637H60.5442H60.5248H60.5054H60.486H60.4665H60.4471H60.4277H60.4083H60.3888H60.3694H60.35H60.3306H60.3111H60.2917H60.2723H60.2529H60.2334H60.214H60.1946H60.1752H60.1557H60.1363H60.1169H60.0975H60.078H60.0586H60.0392H60.0198H60.0003H59.9809H59.9615H59.9421H59.9226H59.9032H59.8838H59.8643H59.8449H59.8255H59.8061H59.7866H59.7672H59.7478H59.7284H59.7089H59.6895H59.6701H59.6507H59.6312H59.6118H59.5924H59.573H59.5535H59.5341H59.5147H59.4953H59.4758H59.4564H59.437H59.4176H59.3981H59.3787H59.3593H59.3399H59.3204H59.301H59.2816H59.2622H59.2427H59.2233H59.2039H59.1844H59.165H59.1456H59.1262H59.1067H59.0873H59.0679H59.0485H59.029H59.0096H58.9902H58.9708H58.9513H58.9319H58.9125H58.8931H58.8736H58.8542H58.8348H58.8153H58.7959H58.7765H58.7571H58.7376H58.7182H58.6988H58.6794H58.6599H58.6405H58.6211H58.6017H58.5822H58.5628H58.5434H58.5239H58.5045H58.4851H58.4657H58.4462H58.4268H58.4074H58.388H58.3685H58.3491H58.3297H58.3102H58.2908H58.2714H58.252H58.2325H58.2131H58.1937H58.1743H58.1548H58.1354H58.116H58.0965H58.0771H58.0577H58.0383H58.0188H57.9994H57.98H57.9606H57.9411H57.9217H57.9023H57.8828H57.8634H57.844H57.8246H57.8051H57.7857H57.7663H57.7468H57.7274H57.708H57.6886H57.6691H57.6497H57.6303H57.6109H57.5914H57.572H57.5526H57.5331H57.5137H57.4943H57.4749H57.4554H57.436H57.4166H57.3971H57.3777H57.3583H57.3389H57.3194H57.3H57.2806H57.2611H57.2417H57.2223H57.2029H57.1834H57.164H57.1446H57.1251H57.1057H57.0863H57.0669H57.0474H57.028H57.0086H56.9892H56.9697H56.9503H56.9309H56.9114H56.892H56.8726H56.8531H56.8337H56.8143H56.7949H56.7754H56.756H56.7366H56.7171H56.6977H56.6783H56.6589H56.6394H56.62H56.6006H56.5811H56.5617H56.5423H56.5229H56.5034H56.484H56.4646H56.4451H56.4257H56.4063H56.3869H56.3674H56.348H56.3286H56.3091H56.2897H56.2703H56.2508H56.2314H56.212H56.1926H56.1731H56.1537H56.1343H56.1148H56.0954H56.076H56.0566H56.0371H56.0177H55.9983H55.9788H55.9594H55.94H55.9205H55.9011H55.8817H55.8623H55.8428H55.8234H55.804H55.7845H55.7651H55.7457H55.7262H55.7068H55.6874H55.668H55.6485H55.6291H55.6097H55.5902H55.5708H55.5514H55.5319H55.5125H55.4931H55.4737H55.4542H55.4348H55.4154H55.3959H55.3765H55.3571H55.3376H55.3182H55.2988H55.2793H55.2599H55.2405H55.2211H55.2016H55.1822H55.1628H55.1433H55.1239H55.1045H55.085H55.0656H55.0462H55.0268H55.0073H54.9879H54.9685H54.949H54.9296H54.9102H54.8907H54.8713H54.8519H54.8324H54.813H54.7936H54.7741H54.7547H54.7353H54.7159H54.6964H54.677H54.6576H54.6381H54.6187H54.5993H54.5798H54.5604H54.541H54.5215H54.5021H54.4827H54.4633H54.4438H54.4244H54.405H54.3855H54.3661H54.3467H54.3272H54.3078H54.2884H54.2689H54.2495H54.2301H54.2106H54.1912H54.1718H54.1523H54.1329H54.1135H54.0941H54.0746H54.0552H54.0358H54.0163H53.9969H53.9775H53.958H53.9386H53.9192H53.8997H53.8803H53.8609H53.8414H53.822H53.8026H53.7831H53.7637H53.7443H53.7248H53.7054H53.686H53.6665H53.6471H53.6277H53.6082H53.5888H53.5694H53.55H53.5305C53.2658 21.7786 53.0903 21.7125 52.9792 21.5975C52.8673 21.4817 52.8032 21.2984 52.8012 21.0262V21.0231V21.0196V21.0161V21.0126V21.0091V21.0056V21.0021V20.9987V20.9952V20.9917V20.9882V20.9847V20.9812V20.9777V20.9742V20.9708V20.9673V20.9638V20.9603V20.9568V20.9533V20.9498V20.9463V20.9429V20.9394V20.9359V20.9324V20.9289V20.9254V20.9219V20.9184V20.915V20.9115V20.908V20.9045V20.901V20.8975V20.894V20.8905V20.8871V20.8836V20.8801V20.8766V20.8731V20.8696V20.8661V20.8626V20.8592V20.8557V20.8522V20.8487V20.8452V20.8417V20.8382V20.8347V20.8313V20.8278V20.8243V20.8208V20.8173V20.8138V20.8103V20.8068V20.8034V20.7999V20.7964V20.7929V20.7894V20.7859V20.7824V20.7789V20.7755V20.772V20.7685V20.765V20.7615V20.758V20.7545V20.751V20.7475V20.7441V20.7406V20.7371V20.7336V20.7301V20.7266V20.7231V20.7196V20.7162V20.7127V20.7092V20.7057V20.7022V20.6987V20.6952V20.6917V20.6883V20.6848V20.6813V20.6778V20.6743V20.6708V20.6673V20.6638V20.6603V20.6569V20.6534V20.6499V20.6464V20.6429V20.6394V20.6359V20.6324V20.629V20.6255V20.622V20.6185V20.615V20.6115V20.608V20.6045V20.601V20.5976V20.5941V20.5906V20.5871V20.5836V20.5801V20.5766V20.5731V20.5696V20.5662V20.5627V20.5592V20.5557V20.5522V20.5487V20.5452V20.5417V20.5383V20.5348V20.5313V20.5278V20.5243V20.5208V20.5173V20.5138V20.5103V20.5069V20.5034V20.4999V20.4964V20.4929V20.4894V20.4859V20.4824V20.4789V20.4755V20.472V20.4685V20.465V20.4615V20.458V20.4545V20.451V20.4475V20.4441V20.4406V20.4371V20.4336V20.4301V20.4266V20.4231V20.4196V20.4161V20.4127V20.4092V20.4057V20.4022V20.3987V20.3952V20.3917V20.3882V20.3847V20.3813V20.3778V20.3743V20.3708V20.3673V20.3638V20.3603V20.3568V20.3533V20.3499V20.3464V20.3429V20.3394V20.3359V20.3324V20.3289V20.3254V20.3219V20.3185V20.315V20.3115V20.308V20.3045V20.301V20.2975V20.294V20.2905V20.287V20.2836V20.2801V20.2766V20.2731V20.2696V20.2661V20.2626V20.2591V20.2556V20.2522V20.2487V20.2452V20.2417V20.2382V20.2347V20.2312V20.2277V20.2242V20.2207V20.2173V20.2138V20.2103V20.2068V20.2033V20.1998V20.1963V20.1928V20.1893V20.1859V20.1824V20.1789V20.1754V20.1719V20.1684V20.1649V20.1614V20.1579V20.1544V20.151V20.1475V20.144V20.1405V20.137V20.1335V20.13V20.1265V20.123V20.1195V20.1161V20.1126V20.1091V20.1056V20.1021V20.0986V20.0951V20.0916V20.0881V20.0846V20.0812V20.0777V20.0742V20.0707V20.0672V20.0637V20.0602V20.0567V20.0532V20.0497V20.0463V20.0428V20.0393V20.0358V20.0323V20.0288V20.0253V20.0218V20.0183V20.0148V20.0114V20.0079V20.0044V20.0009V19.9974V19.9939V19.9904V19.9869V19.9834V19.9799V19.9765V19.973V19.9695V19.966V19.9625V19.959V19.9555V19.952V19.9485V19.945V19.9415V19.9381V19.9346V19.9311V19.9276V19.9241V19.9206V19.9171V19.9136V19.9101V19.9066V19.9032V19.8997V19.8962V19.8927V19.8892V19.8857V19.8822V19.8787V19.8752V19.8717V19.8682V19.8648V19.8613V19.8578V19.8543V19.8508V19.8473V19.8438V19.8403V19.8368V19.8333V19.8298V19.8264V19.8229V19.8194V19.8159V19.8124V19.8089V19.8054V19.8019V19.7984V19.7949V19.7914V19.788V19.7845V19.781V19.7775V19.774V19.7705V19.767V19.7635V19.76V19.7565V19.753V19.7496V19.7461V19.7426V19.7391V19.7356V19.7321V19.7286V19.7251V19.7216V19.7181V19.7146V19.7112V19.7077V19.7042V19.7007V19.6972V19.6937V19.6902V19.6867V19.6832V19.6797V19.6762V19.6728V19.6693V19.6658V19.6623V19.6588V19.6553V19.6518V19.6483V19.6448V19.6413V19.6378V19.6343V19.6309V19.6274V19.6239V19.6204V19.6169V19.6134V19.6099V19.6064V19.6029V19.5994V19.5959V19.5925V19.589V19.5855V19.582V19.5785V19.575V19.5715V19.568V19.5645V19.561V19.5575V19.554V19.5506V19.5471V19.5436V19.5401V19.5366V19.5331V19.5296V19.5261V19.5226V19.5191V19.5156V19.5121V19.5087V19.5052V19.5017V19.4982V19.4947V19.4912V19.4877V19.4842V19.4807V19.4772V19.4737V19.4702V19.4668V19.4633V19.4598V19.4563V19.4528V19.4493V19.4458V19.4423V19.4388V19.4353V19.4318V19.4283V19.4248V19.4214V19.4179V19.4144V19.4109V19.4074V19.4039V19.4004V19.3969V19.3934V19.3899V19.3864V19.3829V19.3795V19.376V19.3725V19.369V19.3655V19.362V19.3585V19.355V19.3515V19.348V19.3445V19.341V19.3375V19.3341V19.3306V19.3271V19.3236V19.3201V19.3166V19.3131V19.3096V19.3061V19.3026V19.2991V19.2956V19.2921V19.2887V19.2852V19.2817V19.2782V19.2747V19.2712V19.2677V19.2642V19.2607V19.2572V19.2537V19.2502V19.2467V19.2433V19.2398C52.8012 19.0022 52.8701 18.8177 52.9804 18.6953C53.0895 18.5741 53.2465 18.5052 53.4425 18.5101C53.6412 18.5151 53.7921 18.586 53.8956 18.7033C54.0002 18.822 54.0648 18.9982 54.0694 19.2277L54.0693 19.2277L54.0695 19.231C54.0833 19.4955 54.0833 19.7606 54.0695 20.0251L62.9243 20.4998Z" fill="#0E101A" stroke="#86E8D1" stroke-width="0.2"/>
</g>
<defs>
<clipPath id="clip0_67_2077">
<rect width="75" height="75" fill="white" transform="translate(0 0.963379)"/>
</clipPath>
</defs>
</svg>
