<svg width="210" height="31" viewBox="0 0 210 31" fill="none" xmlns="http://www.w3.org/2000/svg">
<path d="M0.382812 30H6.24219V21.9141L9.21094 18.3203L17.0625 30H24.0938L13.4297 14.375L23.9766 1.71875H16.9062L6.63281 14.2578H6.24219V1.71875H0.382812V30ZM51.2031 15.8594C51.2031 6.62109 45.4805 1.32812 38 1.32812C30.4609 1.32812 24.7578 6.62109 24.7578 15.8594C24.7578 25.0586 30.4609 30.3906 38 30.3906C45.4805 30.3906 51.2031 25.0977 51.2031 15.8594ZM30.7344 15.8594C30.7344 9.80469 33.6055 6.54297 38 6.52344C42.3555 6.54297 45.2461 9.80469 45.2266 15.8594C45.2461 21.8945 42.3555 25.1758 38 25.1953C33.6055 25.1758 30.7344 21.8945 30.7344 15.8594ZM55.4219 30H61.2812V19.9609H65.7539L71.1641 30H77.6484L71.6328 19.0039C74.8555 17.6172 76.6328 14.8047 76.6328 10.9375C76.6328 5.33203 72.9414 1.71875 66.5156 1.71875H55.4219V30ZM61.2812 15.1953V6.52344H65.4219C68.8984 6.54297 70.5977 8.08594 70.5781 10.9375C70.5977 13.7695 68.8984 15.1953 65.4219 15.1953H61.2812ZM80.5781 30H86.3594V17.9297C86.3398 15.332 88.2734 13.5156 90.8906 13.5156C91.6914 13.5156 92.8047 13.6523 93.3516 13.8281V8.67188C92.8438 8.55469 92.1016 8.47656 91.5156 8.47656C89.1328 8.47656 87.1602 9.86328 86.3984 12.4609H86.1641V8.78906H80.5781V30ZM105.109 30.4297C110.344 30.4102 113.859 27.8711 114.68 23.9453H109.172C108.605 25.2148 107.199 26.0742 105.227 26.0938C102.238 26.0742 100.344 24.1016 100.344 20.8984H114.836V19.2578C114.836 12.0312 110.441 8.51562 104.875 8.51562C98.6641 8.51562 94.6211 12.9492 94.6406 19.4922C94.6211 26.2109 98.6055 30.4102 105.109 30.4297ZM100.344 17.2656C100.461 14.8242 102.336 12.832 104.992 12.8516C107.57 12.832 109.348 14.6875 109.367 17.2656H100.344ZM128 30.4297C133.625 30.4102 137.16 27.1094 137.414 22.3047H131.984C131.613 24.5508 130.109 25.8203 128.078 25.8203C125.266 25.8203 123.469 23.4766 123.469 19.375C123.469 15.3516 125.305 13.0273 128.078 13.0078C130.266 13.0273 131.633 14.4727 131.984 16.5625H137.414C137.18 11.6992 133.469 8.51562 128 8.51562C121.574 8.51562 117.59 12.9688 117.609 19.4531C117.59 25.918 121.496 30.4102 128 30.4297ZM152.18 8.78906H148.195V3.71094H142.414V8.78906H139.484V13.125H142.414V24.2969C142.375 28.418 145.227 30.293 149.406 30.2734C150.832 30.293 151.867 30.1758 152.492 30.0781V25.5078C151.789 25.5664 150.773 25.625 150.188 25.625C149.016 25.5859 148.176 25.1758 148.195 23.4766V13.125H152.18V8.78906ZM155.812 30H161.594V8.78906H155.812V30ZM155.539 3.08594C155.539 4.6875 156.965 6.01562 158.703 6.01562C160.422 6.01562 161.848 4.6875 161.828 3.08594C161.848 1.44531 160.422 0.136719 158.703 0.117188C156.965 0.136719 155.539 1.44531 155.539 3.08594ZM175.617 30.4297C182.043 30.4102 186.027 26.0156 186.047 19.4531C186.027 12.9102 182.043 8.51562 175.617 8.51562C169.211 8.51562 165.207 12.9102 165.227 19.4531C165.207 26.0156 169.211 30.4102 175.617 30.4297ZM171.086 19.4531C171.086 15.7227 172.629 12.9297 175.656 12.9297C178.605 12.9297 180.168 15.7227 180.148 19.4531C180.168 23.1641 178.605 25.918 175.656 25.9375C172.629 25.918 171.086 23.1641 171.086 19.4531ZM195.461 17.7344C195.461 14.9414 197.121 13.3203 199.523 13.3203C201.926 13.3203 203.332 14.8828 203.352 17.5V30H209.094V16.4844C209.113 11.543 206.223 8.51562 201.789 8.51562C198.645 8.51562 196.379 10.0586 195.422 12.5H195.188V8.78906H189.68V30H195.461V17.7344Z" fill="url(#paint0_linear_502_2)"/>
<defs>
<linearGradient id="paint0_linear_502_2" x1="212" y1="15" x2="2.5" y2="30" gradientUnits="userSpaceOnUse">
<stop stop-color="#15C39A"/>
<stop offset="1" stop-color="#0A84FF"/>
</linearGradient>
</defs>
</svg>
